<svg width="128" height="128" viewBox="0 0 128 128" fill="none" xmlns="http://www.w3.org/2000/svg">
<g filter="url(#filter0_i_78_22)">
<path d="M75.0317 70.4473V69.0604C75.0317 69.0604 70.6655 69.147 69.443 68.1935C68.2205 67.24 67.4345 65.5931 67.4345 63.0793V55.1913C67.4345 55.1913 79.0487 53.9778 82.7163 50.3371C86.3839 46.6965 87.4318 40.8022 87.4318 37.1615C87.4318 36.3286 87.4358 34.8523 87.4402 33.2508C87.4453 31.3525 87.451 29.2782 87.451 27.8909C87.451 26.3288 87.7291 23.5473 89.865 23.5473C90.927 23.5473 92.5839 23.5525 92.5839 23.5525V21.7322C92.5839 21.7322 90.3135 21.6455 88.9163 21.6455C87.5191 21.6455 84.1571 21.8622 82.4543 23.5525C80.7515 25.2428 79.6599 29.8803 79.6599 37.855C79.6599 45.8297 78.9613 47.9967 76.9529 49.9904C73.9399 52.9812 67.4345 53.1976 67.4345 53.1976V30.3137C67.4345 30.146 67.4342 29.9831 67.4339 29.8247C67.4291 27.3623 67.4264 25.9877 68.6571 24.7661C69.9669 23.4658 74.3332 23.6392 74.3332 23.6392V21.6455H52.8826V23.6392C52.8826 23.6392 57.2488 23.4658 58.5587 24.7661C59.7894 25.9877 59.7867 27.3623 59.7818 29.8247C59.7815 29.9831 59.7812 30.146 59.7812 30.3137V53.1976C59.7812 53.1976 53.2759 52.9812 50.2629 49.9904C48.2544 47.9967 47.5558 45.8297 47.5558 37.855C47.5558 29.8803 46.4643 25.2428 44.7614 23.5525C43.0586 21.8622 39.6966 21.6455 38.2995 21.6455C36.9023 21.6455 34.6318 21.7322 34.6318 21.7322V23.5525C34.6318 23.5525 36.2887 23.5473 37.3508 23.5473C39.4867 23.5473 39.7647 26.3288 39.7647 27.891C39.7647 29.2783 39.7704 31.3525 39.7756 33.2509C39.7799 34.8523 39.784 36.3286 39.784 37.1616C39.784 40.8022 40.8319 46.6965 44.4995 50.3372C48.1671 53.9778 59.7812 55.1913 59.7812 55.1913V63.0793C59.7812 65.5931 58.9953 67.2401 57.7728 68.1936C56.5502 69.1471 52.184 69.0604 52.184 69.0604V70.4473L75.0317 70.4473Z" fill="#98DA8B"/>
</g>
<g filter="url(#filter1_i_78_22)">
<path d="M15.9142 62.5283C9.15882 53.2646 11.0011 42.8389 12.8532 38.6996C12.9818 39.2945 13.1069 39.9381 13.2416 40.6311C13.9962 44.5139 15.0524 49.949 18.7185 57.0867C23.4458 66.2907 29.1368 68.9569 33.5586 71.0285C33.838 71.1595 34.1124 71.288 34.3811 71.4157C31.0655 72.3351 22.3778 71.3919 15.9142 62.5283Z" fill="#98DA8B"/>
<path d="M16.8125 75.9691C6.06071 65.5115 5.87602 49.5661 8.1939 45.2987C14.0548 82.1365 38.1299 72.3152 37.3535 71.5463C30.3055 67.3063 28.3273 59.4619 28.2191 56.0696C29.3632 57.7358 32.5035 60.7255 36.5427 62.5438C37.1784 62.83 37.8728 63.1025 38.6016 63.3885C42.2595 64.824 46.7826 66.5991 49.0767 72.1377C51.8281 78.78 58.5089 103.833 58.5089 103.833C45.9741 89.2728 36.8499 85.8264 29.321 82.9826C24.6884 81.2329 20.6599 79.7112 16.8125 75.9691Z" fill="#98DA8B"/>
<path d="M18.003 42.2084C17.7158 45.1158 18.5126 51.1703 21.0433 56.1237C23.4845 60.902 28.4384 65.1977 30.168 66.4907C28.9681 65.5536 27.6077 61.2196 26.7514 58.4915C26.3541 57.2258 26.0653 56.3058 25.9514 56.2308C24.1816 55.0665 19.172 48.9119 18.003 42.2084Z" fill="#98DA8B"/>
</g>
<g filter="url(#filter2_i_78_22)">
<path d="M111.216 62.5283C117.971 53.2646 116.129 42.8389 114.277 38.6996C114.148 39.2945 114.023 39.9381 113.889 40.6311C113.134 44.5139 112.078 49.949 108.412 57.0867C103.684 66.2907 97.9933 68.9569 93.5715 71.0285C93.2921 71.1595 93.0177 71.288 92.749 71.4157C96.0646 72.3351 104.752 71.3919 111.216 62.5283Z" fill="#98DA8B"/>
<path d="M110.318 75.9691C121.069 65.5115 121.254 49.5661 118.936 45.2987C113.075 82.1365 89.0003 72.3152 89.7767 71.5463C96.8246 67.3063 98.8029 59.4619 98.911 56.0696C97.7669 57.7358 94.6266 60.7255 90.5874 62.5438C89.9518 62.83 89.2573 63.1025 88.5285 63.3885C84.8706 64.824 80.3476 66.5991 78.0534 72.1377C75.3021 78.78 68.6212 103.833 68.6212 103.833C81.156 89.2728 90.2803 85.8264 97.8092 82.9826C102.442 81.2329 106.47 79.7112 110.318 75.9691Z" fill="#98DA8B"/>
<path d="M109.127 42.2084C109.414 45.1158 108.618 51.1703 106.087 56.1237C103.646 60.902 98.6918 65.1977 96.9621 66.4907C98.1621 65.5536 99.5224 61.2196 100.379 58.4915C100.776 57.2258 101.065 56.3058 101.179 56.2308C102.949 55.0665 107.958 48.9119 109.127 42.2084Z" fill="#98DA8B"/>
</g>
<defs>
<filter id="filter0_i_78_22" x="32.2558" y="21.6455" width="60.3281" height="53.5646" filterUnits="userSpaceOnUse" color-interpolation-filters="sRGB">
<feFlood flood-opacity="0" result="BackgroundImageFix"/>
<feBlend mode="normal" in="SourceGraphic" in2="BackgroundImageFix" result="shape"/>
<feColorMatrix in="SourceAlpha" type="matrix" values="0 0 0 0 0 0 0 0 0 0 0 0 0 0 0 0 0 0 127 0" result="hardAlpha"/>
<feOffset dx="-2.376" dy="4.7628"/>
<feGaussianBlur stdDeviation="2.3814"/>
<feComposite in2="hardAlpha" operator="arithmetic" k2="-1" k3="1"/>
<feColorMatrix type="matrix" values="0 0 0 0 0 0 0 0 0 0 0 0 0 0 0 0 0 0 0.375 0"/>
<feBlend mode="normal" in2="shape" result="effect1_innerShadow_78_22"/>
</filter>
<filter id="filter1_i_78_22" x="4.822" y="38.6996" width="53.687" height="69.4993" filterUnits="userSpaceOnUse" color-interpolation-filters="sRGB">
<feFlood flood-opacity="0" result="BackgroundImageFix"/>
<feBlend mode="normal" in="SourceGraphic" in2="BackgroundImageFix" result="shape"/>
<feColorMatrix in="SourceAlpha" type="matrix" values="0 0 0 0 0 0 0 0 0 0 0 0 0 0 0 0 0 0 127 0" result="hardAlpha"/>
<feOffset dx="-2.178" dy="4.3659"/>
<feGaussianBlur stdDeviation="2.18295"/>
<feComposite in2="hardAlpha" operator="arithmetic" k2="-1" k3="1"/>
<feColorMatrix type="matrix" values="0 0 0 0 0 0 0 0 0 0 0 0 0 0 0 0 0 0 0.375 0"/>
<feBlend mode="normal" in2="shape" result="effect1_innerShadow_78_22"/>
</filter>
<filter id="filter2_i_78_22" x="66.4431" y="38.6996" width="53.687" height="69.4993" filterUnits="userSpaceOnUse" color-interpolation-filters="sRGB">
<feFlood flood-opacity="0" result="BackgroundImageFix"/>
<feBlend mode="normal" in="SourceGraphic" in2="BackgroundImageFix" result="shape"/>
<feColorMatrix in="SourceAlpha" type="matrix" values="0 0 0 0 0 0 0 0 0 0 0 0 0 0 0 0 0 0 127 0" result="hardAlpha"/>
<feOffset dx="-2.178" dy="4.3659"/>
<feGaussianBlur stdDeviation="2.18295"/>
<feComposite in2="hardAlpha" operator="arithmetic" k2="-1" k3="1"/>
<feColorMatrix type="matrix" values="0 0 0 0 0 0 0 0 0 0 0 0 0 0 0 0 0 0 0.375 0"/>
<feBlend mode="normal" in2="shape" result="effect1_innerShadow_78_22"/>
</filter>
</defs>
</svg>
